<svg width="32" height="32" viewBox="0 0 32 32" fill="none" xmlns="http://www.w3.org/2000/svg">
  <defs>
    <linearGradient id="bg-gradient" x1="0%" y1="0%" x2="100%" y2="100%">
      <stop offset="0%" style="stop-color:#3B82F6;stop-opacity:1" />
      <stop offset="100%" style="stop-color:#8B5CF6;stop-opacity:1" />
    </linearGradient>
  </defs>
  
  <!-- Background rounded rectangle -->
  <rect width="32" height="32" rx="6" fill="url(#bg-gradient)"/>
  
  <!-- Sparkles icon -->
  <g fill="white" stroke="white" stroke-width="0.5">
    <!-- Main sparkle -->
    <path d="M16 6L17.5 11.5L23 13L17.5 14.5L16 20L14.5 14.5L9 13L14.5 11.5L16 6Z"/>
    
    <!-- Small sparkles -->
    <path d="M24 9L24.75 10.75L26.5 11.5L24.75 12.25L24 14L23.25 12.25L21.5 11.5L23.25 10.75L24 9Z"/>
    <path d="M8 20L8.5 21.5L10 22L8.5 22.5L8 24L7.5 22.5L6 22L7.5 21.5L8 20Z"/>
    <path d="M26 23L26.25 23.75L27 24L26.25 24.25L26 25L25.75 24.25L25 24L25.75 23.75L26 23Z"/>
  </g>
</svg> 